<svg width="25" height="25" viewBox="0 0 25 25" fill="none" xmlns="http://www.w3.org/2000/svg">
<path d="M11.1375 2.62988C4.5585 2.62988 0 7.89313 0 10.5249C0 13.1561 1.31575 15.1299 3.9475 15.1299C6.579 15.1299 7.89475 15.7876 7.89475 17.7614C7.89475 20.3931 9.8685 22.3666 12.4998 22.3666C21.0525 22.3666 24.9998 17.7616 24.9998 13.1561C24.9998 5.26138 19.0322 2.62988 11.1375 2.62988ZM9.3815 5.26138C9.59921 5.2587 9.8153 5.29926 10.0172 5.38072C10.2191 5.46218 10.4029 5.58291 10.5578 5.73592C10.7127 5.88893 10.8357 6.07116 10.9196 6.27206C11.0036 6.47296 11.0468 6.68853 11.0468 6.90626C11.0468 7.12399 11.0036 7.33955 10.9196 7.54045C10.8357 7.74135 10.7127 7.92359 10.5578 8.0766C10.4029 8.2296 10.2191 8.35034 10.0172 8.4318C9.8153 8.51325 9.59921 8.55382 9.3815 8.55113C8.94876 8.5458 8.53556 8.37015 8.23144 8.06226C7.92732 7.75436 7.75678 7.33903 7.75678 6.90626C7.75678 6.47349 7.92732 6.05815 8.23144 5.75026C8.53556 5.44236 8.94876 5.26672 9.3815 5.26138ZM14.6447 5.26138C14.8625 5.2587 15.0785 5.29926 15.2805 5.38072C15.4824 5.46218 15.6661 5.58291 15.821 5.73592C15.9759 5.88893 16.0989 6.07116 16.1829 6.27206C16.2668 6.47296 16.31 6.68853 16.31 6.90626C16.31 7.12399 16.2668 7.33955 16.1829 7.54045C16.0989 7.74135 15.9759 7.92359 15.821 8.0766C15.6661 8.2296 15.4824 8.35034 15.2805 8.4318C15.0785 8.51325 14.8625 8.55382 14.6447 8.55113C14.212 8.5458 13.7988 8.37015 13.4947 8.06226C13.1906 7.75436 13.02 7.33903 13.02 6.90626C13.02 6.47349 13.1906 6.05815 13.4947 5.75026C13.7988 5.44236 14.212 5.26672 14.6447 5.26138ZM19.4075 7.89313C19.6252 7.89045 19.8412 7.93101 20.0431 8.01245C20.245 8.0939 20.4287 8.21461 20.5836 8.3676C20.7385 8.52058 20.8615 8.70279 20.9454 8.90366C21.0293 9.10453 21.0725 9.32006 21.0725 9.53776C21.0725 9.75546 21.0293 9.97099 20.9454 10.1719C20.8615 10.3727 20.7385 10.5549 20.5836 10.7079C20.4287 10.8609 20.245 10.9816 20.0431 11.0631C19.8412 11.1445 19.6252 11.1851 19.4075 11.1824C18.9748 11.177 18.5617 11.0014 18.2576 10.6936C17.9535 10.3857 17.783 9.97046 17.783 9.53776C17.783 9.10506 17.9535 8.68978 18.2576 8.38194C18.5617 8.07409 18.9748 7.89847 19.4075 7.89313ZM4.776 8.20888C4.9944 8.20508 5.21138 8.2448 5.41427 8.32575C5.61715 8.4067 5.80189 8.52724 5.95768 8.68035C6.11348 8.83345 6.23723 9.01606 6.3217 9.2175C6.40617 9.41894 6.44968 9.6352 6.44968 9.85363C6.44968 10.0721 6.40617 10.2883 6.3217 10.4898C6.23723 10.6912 6.11348 10.8738 5.95768 11.0269C5.80189 11.18 5.61715 11.3006 5.41427 11.3815C5.21138 11.4625 4.9944 11.5022 4.776 11.4984C4.34475 11.4909 3.93371 11.3143 3.63139 11.0066C3.32908 10.699 3.15968 10.2849 3.15968 9.85363C3.15968 9.42232 3.32908 9.00826 3.63139 8.70063C3.93371 8.39299 4.34475 8.2164 4.776 8.20888ZM13.5 15.7876C14.0235 15.7876 14.5255 15.9956 14.8957 16.3657C15.2658 16.7359 15.4738 17.2379 15.4738 17.7614C15.4738 18.8514 14.09 19.7351 13 19.7351C12.4765 19.7351 11.9745 19.5272 11.6043 19.157C11.2342 18.7869 11.0262 18.2849 11.0262 17.7614C11.0262 16.6714 12.41 15.7876 13.5 15.7876Z" fill="black"/>
</svg>
