<svg width="25" height="25" viewBox="0 0 25 25" fill="none" xmlns="http://www.w3.org/2000/svg">
<path d="M22.9168 19.3803C22.9168 19.5875 22.8345 19.7862 22.688 19.9328C22.5415 20.0793 22.3428 20.1616 22.1356 20.1616H16.8231C16.6491 20.8104 16.2659 21.3837 15.7329 21.7926C15.1999 22.2015 14.5469 22.4231 13.8752 22.4231C13.2034 22.4231 12.5504 22.2015 12.0174 21.7926C11.4844 21.3837 11.1012 20.8104 10.9272 20.1616H2.86475C2.65755 20.1616 2.45883 20.0793 2.31232 19.9328C2.16581 19.7862 2.0835 19.5875 2.0835 19.3803C2.0835 19.1731 2.16581 18.9744 2.31232 18.8279C2.45883 18.6814 2.65755 18.5991 2.86475 18.5991H10.9272C11.1012 17.9503 11.4844 17.377 12.0174 16.9681C12.5504 16.5592 13.2034 16.3376 13.8752 16.3376C14.5469 16.3376 15.1999 16.5592 15.7329 16.9681C16.2659 17.377 16.6491 17.9503 16.8231 18.5991H22.1356C22.3428 18.5991 22.5415 18.6814 22.688 18.8279C22.8345 18.9744 22.9168 19.1731 22.9168 19.3803ZM22.9168 5.61991C22.9168 5.82711 22.8345 6.02583 22.688 6.17234C22.5415 6.31885 22.3428 6.40116 22.1356 6.40116H19.5835C19.4095 7.04999 19.0263 7.62329 18.4933 8.03217C17.9603 8.44105 17.3073 8.66268 16.6356 8.66268C15.9638 8.66268 15.3108 8.44105 14.7778 8.03217C14.2449 7.62329 13.8617 7.04999 13.6877 6.40116H2.86475C2.76215 6.40116 2.66056 6.38096 2.56577 6.34169C2.47099 6.30243 2.38486 6.24489 2.31232 6.17234C2.23977 6.09979 2.18223 6.01367 2.14297 5.91888C2.1037 5.8241 2.0835 5.72251 2.0835 5.61991C2.0835 5.51732 2.1037 5.41573 2.14297 5.32094C2.18223 5.22616 2.23977 5.14003 2.31232 5.06749C2.38486 4.99494 2.47099 4.93739 2.56577 4.89813C2.66056 4.85887 2.76215 4.83866 2.86475 4.83866H13.6877C13.8617 4.18983 14.2449 3.61653 14.7778 3.20765C15.3108 2.79877 15.9638 2.57715 16.6356 2.57715C17.3073 2.57715 17.9603 2.79877 18.4933 3.20765C19.0263 3.61653 19.4095 4.18983 19.5835 4.83866H22.1356C22.2386 4.83726 22.3408 4.85651 22.4362 4.89528C22.5316 4.93404 22.6183 4.99154 22.6911 5.06436C22.764 5.13719 22.8214 5.22387 22.8602 5.31929C22.899 5.41471 22.9182 5.51693 22.9168 5.61991ZM22.9168 12.4949C22.9182 12.5979 22.899 12.7001 22.8602 12.7955C22.8214 12.891 22.764 12.9776 22.6911 13.0505C22.6183 13.1233 22.5316 13.1808 22.4362 13.2195C22.3408 13.2583 22.2386 13.2776 22.1356 13.2762H9.94808C9.77408 13.925 9.39088 14.4983 8.85789 14.9072C8.32491 15.3161 7.67192 15.5377 7.00016 15.5377C6.32841 15.5377 5.67542 15.3161 5.14243 14.9072C4.60945 14.4983 4.22625 13.925 4.05225 13.2762H2.86475C2.65755 13.2762 2.45883 13.1939 2.31232 13.0473C2.16581 12.9008 2.0835 12.7021 2.0835 12.4949C2.0835 12.2877 2.16581 12.089 2.31232 11.9425C2.45883 11.796 2.65755 11.7137 2.86475 11.7137H4.05225C4.22625 11.0648 4.60945 10.4915 5.14243 10.0827C5.67542 9.67377 6.32841 9.45215 7.00016 9.45215C7.67192 9.45215 8.32491 9.67377 8.85789 10.0827C9.39088 10.4915 9.77408 11.0648 9.94808 11.7137H22.1356C22.3428 11.7137 22.5415 11.796 22.688 11.9425C22.8345 12.089 22.9168 12.2877 22.9168 12.4949Z" fill="black"/>
</svg>
