<svg width="25" height="25" viewBox="0 0 25 25" fill="none" xmlns="http://www.w3.org/2000/svg">
<path d="M14.0625 17.5781C14.0625 17.8872 13.9709 18.1893 13.7992 18.4462C13.6275 18.7032 13.3835 18.9034 13.0979 19.0217C12.8124 19.1399 12.4983 19.1709 12.1952 19.1106C11.8921 19.0503 11.6137 18.9015 11.3951 18.683C11.1766 18.4645 11.0278 18.186 10.9675 17.883C10.9072 17.5799 10.9382 17.2657 11.0564 16.9802C11.1747 16.6947 11.375 16.4506 11.6319 16.279C11.8889 16.1073 12.191 16.0156 12.5 16.0156C12.9144 16.0156 13.3118 16.1802 13.6049 16.4733C13.8979 16.7663 14.0625 17.1637 14.0625 17.5781ZM21.0938 10.1562V14.8438C21.0938 17.123 20.1883 19.3088 18.5767 20.9204C16.9651 22.5321 14.7792 23.4375 12.5 23.4375C10.2208 23.4375 8.03494 22.5321 6.4233 20.9204C4.81166 19.3088 3.90625 17.123 3.90625 14.8438V6.25C3.90625 5.8356 4.07087 5.43817 4.3639 5.14515C4.65692 4.85212 5.05435 4.6875 5.46875 4.6875C5.88315 4.6875 6.28058 4.85212 6.5736 5.14515C6.86663 5.43817 7.03125 5.8356 7.03125 6.25V11.7188C7.03125 11.926 7.11356 12.1247 7.26007 12.2712C7.40659 12.4177 7.6053 12.5 7.8125 12.5C8.0197 12.5 8.21841 12.4177 8.36493 12.2712C8.51144 12.1247 8.59375 11.926 8.59375 11.7188V3.125C8.59375 2.7106 8.75837 2.31317 9.0514 2.02015C9.34442 1.72712 9.74185 1.5625 10.1562 1.5625C10.5707 1.5625 10.9681 1.72712 11.2611 2.02015C11.5541 2.31317 11.7188 2.7106 11.7188 3.125V10.9375C11.7188 11.1447 11.8011 11.3434 11.9476 11.4899C12.0941 11.6364 12.2928 11.7188 12.5 11.7188C12.7072 11.7188 12.9059 11.6364 13.0524 11.4899C13.1989 11.3434 13.2812 11.1447 13.2812 10.9375V4.6875C13.2812 4.2731 13.4459 3.87567 13.7389 3.58265C14.0319 3.28962 14.4293 3.125 14.8438 3.125C15.2582 3.125 15.6556 3.28962 15.9486 3.58265C16.2416 3.87567 16.4062 4.2731 16.4062 4.6875V12.5C16.4062 12.7072 16.4886 12.9059 16.6351 13.0524C16.7816 13.1989 16.9803 13.2812 17.1875 13.2812C17.3947 13.2812 17.5934 13.1989 17.7399 13.0524C17.8864 12.9059 17.9688 12.7072 17.9688 12.5V10.1562C17.9688 9.74185 18.1334 9.34442 18.4264 9.0514C18.7194 8.75837 19.1168 8.59375 19.5312 8.59375C19.9457 8.59375 20.3431 8.75837 20.6361 9.0514C20.9291 9.34442 21.0938 9.74185 21.0938 10.1562ZM17.5371 17.4033C17.4688 17.2666 15.8281 14.0625 12.5 14.0625C9.17187 14.0625 7.53125 17.2666 7.46289 17.4033C7.43573 17.4576 7.4216 17.5174 7.4216 17.5781C7.4216 17.6388 7.43573 17.6987 7.46289 17.7529C7.53125 17.8896 9.17187 21.0938 12.5 21.0938C15.8281 21.0938 17.4688 17.8896 17.5371 17.7529C17.5643 17.6987 17.5784 17.6388 17.5784 17.5781C17.5784 17.5174 17.5643 17.4576 17.5371 17.4033Z" fill="black"/>
</svg>
