<svg width="25" height="25" viewBox="0 0 25 25" fill="none" xmlns="http://www.w3.org/2000/svg">
<path d="M2.5 7.49707V17.5033C2.5 18.1664 2.76339 18.8022 3.23223 19.2711C3.70107 19.7399 4.33696 20.0033 5 20.0033H20C20.663 20.0033 21.2989 19.7399 21.7678 19.2711C22.2366 18.8022 22.5 18.1664 22.5 17.5033V7.49707C22.5 6.83403 22.2366 6.19814 21.7678 5.7293C21.2989 5.26046 20.663 4.99707 20 4.99707H5C4.33696 4.99707 3.70107 5.26046 3.23223 5.7293C2.76339 6.19814 2.5 6.83403 2.5 7.49707ZM16.405 15.0996C16.3509 15.0378 16.3094 14.9659 16.2831 14.8881C16.2567 14.8103 16.246 14.7281 16.2514 14.6461C16.2569 14.5642 16.2785 14.4841 16.3149 14.4105C16.3513 14.3368 16.4019 14.2711 16.4637 14.2171L17.7112 13.1258H14.375C14.2092 13.1258 14.0503 13.06 13.9331 12.9428C13.8158 12.8256 13.75 12.6666 13.75 12.5008C13.75 12.3351 13.8158 12.1761 13.9331 12.0589C14.0503 11.9417 14.2092 11.8758 14.375 11.8758H17.7125L16.4625 10.7833C16.3377 10.6739 16.2614 10.5194 16.2505 10.3538C16.2396 10.1882 16.295 10.025 16.4044 9.9002C16.5138 9.77538 16.6683 9.69913 16.8339 9.68823C16.9995 9.67733 17.1627 9.73267 17.2875 9.84207L19.7875 12.0296C19.8546 12.0882 19.9084 12.1606 19.9453 12.2418C19.9822 12.3229 20.0012 12.411 20.0012 12.5002C20.0012 12.5893 19.9822 12.6775 19.9453 12.7586C19.9084 12.8398 19.8546 12.9122 19.7875 12.9708L17.2875 15.1583C17.2257 15.2125 17.1539 15.2539 17.0761 15.2802C16.9983 15.3066 16.916 15.3173 16.8341 15.3119C16.7521 15.3064 16.672 15.2849 16.5984 15.2484C16.5248 15.212 16.4591 15.1614 16.405 15.0996ZM8.595 9.89957C8.64914 9.96135 8.69057 10.0332 8.71692 10.111C8.74327 10.1888 8.75402 10.271 8.74856 10.353C8.74311 10.435 8.72155 10.515 8.68512 10.5887C8.64869 10.6623 8.5981 10.728 8.53625 10.7821L7.28875 11.8746H10.625C10.7908 11.8746 10.9497 11.9404 11.0669 12.0576C11.1842 12.1748 11.25 12.3338 11.25 12.4996C11.25 12.6653 11.1842 12.8243 11.0669 12.9415C10.9497 13.0587 10.7908 13.1246 10.625 13.1246H7.2875L8.5375 14.2158C8.66232 14.3252 8.73856 14.4797 8.74946 14.6453C8.76036 14.811 8.70503 14.9741 8.59563 15.0989C8.48622 15.2238 8.33172 15.3 8.1661 15.3109C8.00048 15.3218 7.83732 15.2665 7.7125 15.1571L5.2125 12.9696C5.14537 12.9109 5.09157 12.8386 5.0547 12.7574C5.01784 12.6762 4.99876 12.5881 4.99876 12.4989C4.99876 12.4098 5.01784 12.3217 5.0547 12.2405C5.09157 12.1593 5.14537 12.087 5.2125 12.0283L7.7125 9.84082C7.77428 9.78668 7.84613 9.74525 7.92393 9.7189C8.00173 9.69255 8.08397 9.6818 8.16593 9.68726C8.24789 9.69271 8.32797 9.71427 8.4016 9.7507C8.47522 9.78713 8.54094 9.83772 8.595 9.89957Z" fill="black"/>
</svg>
