<svg width="25" height="25" viewBox="0 0 25 25" fill="none" xmlns="http://www.w3.org/2000/svg">
<path d="M10.6678 5.99279L19.0074 14.3324C19.3097 14.6307 19.7178 14.7973 20.1426 14.7958C20.5673 14.7944 20.9742 14.6249 21.2745 14.3245C21.5748 14.0241 21.744 13.6171 21.7453 13.1923C21.7466 12.7676 21.5798 12.3596 21.2813 12.0574L20.1449 10.9209L21.6605 9.40425C22.0655 9.00756 22.3879 8.5345 22.609 8.01242C22.83 7.49035 22.9454 6.92962 22.9483 6.36268C22.9513 5.79574 22.8418 5.23385 22.6262 4.70949C22.4106 4.18514 22.0932 3.70873 21.6923 3.30784C21.2914 2.90695 20.815 2.58953 20.2907 2.37393C19.7663 2.15834 19.2044 2.04886 18.6375 2.05182C18.0705 2.05478 17.5098 2.17012 16.9877 2.39117C16.4656 2.61223 15.9926 2.93461 15.5959 3.33966L14.0792 4.85425L12.9428 3.71883C12.7938 3.56786 12.6165 3.44785 12.4209 3.36569C12.2254 3.28353 12.0156 3.24086 11.8035 3.24013C11.5914 3.23939 11.3813 3.28061 11.1852 3.36141C10.9891 3.44221 10.8109 3.56099 10.6609 3.71093C10.5109 3.86086 10.3921 4.03898 10.3112 4.23503C10.2303 4.43108 10.189 4.6412 10.1896 4.85328C10.1902 5.06537 10.2328 5.27523 10.3149 5.4708C10.3969 5.66636 10.5169 5.84376 10.6678 5.99279ZM10.7001 8.23445L4.90632 14.0313C4.43132 14.5063 4.19382 14.7438 4.04278 15.0282C3.94245 15.2179 3.87117 15.4215 3.83132 15.6324C3.7709 15.949 3.8084 16.2824 3.88236 16.9501L3.93757 17.4459C3.9584 17.6282 3.96778 17.7188 3.96986 17.8063C3.9853 18.3359 3.80423 18.8524 3.46153 19.2563C3.40528 19.323 3.33965 19.3876 3.21048 19.5167L2.55528 20.173C2.25695 20.4753 2.09034 20.8834 2.09181 21.3082C2.09328 21.7329 2.26271 22.1399 2.56313 22.4401C2.86354 22.7404 3.27054 22.9097 3.6953 22.9109C4.12005 22.9122 4.52806 22.7454 4.83028 22.447L5.48444 21.7917C5.61465 21.6626 5.67923 21.597 5.74486 21.5417C6.15007 21.198 6.66673 21.0167 7.1959 21.0313C7.2834 21.0345 7.37403 21.0449 7.55632 21.0647L8.05215 21.1199C8.71882 21.1938 9.05319 21.2313 9.36986 21.172C9.58074 21.1317 9.7844 21.0601 9.97403 20.9595C10.2584 20.8084 10.4959 20.5709 10.9709 20.0959L12.4699 18.597L10.5376 16.6667C10.4608 16.5952 10.3992 16.509 10.3565 16.4131C10.3138 16.3173 10.2909 16.2139 10.289 16.109C10.2872 16.0041 10.3065 15.8999 10.3458 15.8026C10.3851 15.7053 10.4435 15.6169 10.5177 15.5427C10.5919 15.4686 10.6803 15.4101 10.7776 15.3708C10.8748 15.3315 10.979 15.3122 11.0839 15.314C11.1888 15.3159 11.2923 15.3389 11.3881 15.3816C11.484 15.4243 11.5702 15.4858 11.6417 15.5626L13.573 17.4928L14.5522 16.5136L12.6209 14.5834C12.4829 14.4353 12.4078 14.2394 12.4113 14.037C12.4149 13.8346 12.4969 13.6415 12.64 13.4984C12.7832 13.3553 12.9763 13.2733 13.1787 13.2697C13.3811 13.2661 13.577 13.3412 13.7251 13.4792L15.6563 15.4095L16.7657 14.3011L10.7001 8.23445Z" fill="black"/>
</svg>
